<?xml version="1.0"?><svg version="1.1" id="圖層_1" xmlns="http://www.w3.org/2000/svg" x="0" y="0" viewBox="0 0 100 100" xml:space="preserve"><circle cx="50" cy="50" r="46" stroke-miterlimit="10" fill="yellow" stroke-width="8" stroke="red"/><path d="M61.082 51.008L33.734 70.655a1.242 1.242 0 0 1-1.967-1.009V30.353a1.242 1.242 0 0 1 1.967-1.009l27.348 19.647c.69.496.69 1.522 0 2.017z" fill="#333"/><path d="M66.884 71h-4.169a1.349 1.349 0 0 1-1.349-1.349V30.349c0-.745.604-1.349 1.349-1.349h4.169c.745 0 1.349.604 1.349 1.349v39.303A1.35 1.35 0 0 1 66.884 71z" fill="#333"/><metadata xmlns:d="https://loading.io/stock/">
<d:name>fast forward</d:name>
<d:tags>fast forward,move,seek,ahead,speed up,next section,player</d:tags>
<d:license>by</d:license>
<d:slug>wn8xwb</d:slug>
</metadata></svg>