<?xml version="1.0" encoding="utf-8"?>
<!-- Generator: Adobe Illustrator 25.3.0, SVG Export Plug-In . SVG Version: 6.00 Build 0)  -->
<svg version="1.1" id="Layer_1" xmlns="http://www.w3.org/2000/svg" xmlns:xlink="http://www.w3.org/1999/xlink" x="0px" y="0px"
	 viewBox="0 0 483 367.3" style="enable-background:new 0 0 483 367.3;" xml:space="preserve">
<g>
	<ellipse transform="matrix(0.7071 -0.7071 0.7071 0.7071 -68.9876 228.6409)" cx="241.5" cy="197.6" rx="92.5" ry="92.5"/>
	<path d="M427.7,27.9H320C317.4,12.1,303.7,0,287.1,0h-91.2c-16.6,0-30.3,12.1-32.9,27.9H55.3C24.8,27.9,0,52.7,0,83.2V312
		c0,30.5,24.8,55.3,55.3,55.3h372.4c30.5,0,55.3-24.8,55.3-55.3V83.2C483,52.7,458.2,27.9,427.7,27.9z M241.5,320.6
		c-67.9,0-123-55.1-123-123s55.1-123,123-123c67.9,0,123,55.1,123,123S309.4,320.6,241.5,320.6z M414.6,118.5
		c-13,0-23.5-10.5-23.5-23.5c0-13,10.5-23.5,23.5-23.5c13,0,23.5,10.5,23.5,23.5C438.2,108,427.6,118.5,414.6,118.5z"/>
</g>
</svg>
